<?xml version="1.0" standalone="no"?>
<!DOCTYPE svg PUBLIC "-//W3C//DTD SVG 20010904//EN"
 "http://www.w3.org/TR/2001/REC-SVG-20010904/DTD/svg10.dtd">
<svg version="1.0" xmlns="http://www.w3.org/2000/svg"
 width="757.000000pt" height="200.000000pt" viewBox="0 0 757.000000 200.000000"
 preserveAspectRatio="xMidYMid meet">

<g transform="translate(0.000000,200.000000) scale(0.100000,-0.100000)"
fill="#000000" stroke="none">
<path d="M613 1503 c-33 -7 -78 -64 -103 -130 -12 -32 -78 -222 -146 -423
-137 -404 -148 -453 -96 -467 15 -5 88 -8 162 -7 151 1 195 14 206 60 9 35
-10 46 -64 39 -63 -9 -102 2 -102 28 0 29 247 756 266 781 11 16 30 21 97 25
86 6 117 19 117 51 0 38 -27 45 -174 47 -78 0 -151 -1 -163 -4z"/>
<path d="M6952 1500 c-42 -10 -72 -37 -72 -66 0 -22 4 -23 83 -26 l82 -3 -2
-35 c-3 -48 -247 -758 -267 -778 -13 -13 -37 -17 -96 -18 -48 -1 -85 -6 -95
-14 -22 -19 -19 -57 8 -72 29 -16 291 -16 329 0 14 6 39 32 54 59 16 26 89
223 162 438 107 313 134 402 135 449 2 56 0 60 -23 67 -34 9 -257 9 -298 -1z"/>
<path d="M3045 1494 c-127 -26 -195 -69 -195 -124 0 -42 28 -53 120 -48 128 7
235 75 215 137 -10 33 -72 48 -140 35z"/>
<path d="M3498 1484 c-102 -19 -180 -48 -212 -81 -33 -32 -33 -47 0 -86 31
-37 30 -51 -30 -232 -66 -198 -96 -259 -145 -289 -70 -44 -49 -90 45 -102 87
-10 239 0 268 20 42 27 51 54 27 80 -12 12 -21 31 -21 42 0 25 114 355 175
506 25 64 45 125 43 135 -4 24 -49 26 -150 7z"/>
<path d="M3930 1484 c-140 -30 -250 -84 -250 -124 0 -6 14 -24 31 -40 l32 -29
-67 -197 c-37 -108 -83 -228 -102 -267 -41 -81 -37 -95 26 -79 38 9 46 7 108
-25 66 -34 69 -35 162 -31 74 4 107 10 151 30 84 38 155 95 210 168 117 155
125 317 19 373 -52 27 -142 18 -216 -22 -32 -17 -59 -29 -62 -27 -2 3 17 60
42 126 25 67 46 131 46 141 0 23 -34 24 -130 3z m90 -394 c27 -27 26 -83 -5
-167 -30 -85 -80 -136 -128 -131 -45 4 -46 34 -7 160 43 139 91 187 140 138z"/>
<path d="M4701 1485 c-197 -36 -280 -97 -221 -160 33 -35 29 -73 -29 -243 -72
-215 -92 -256 -141 -287 -34 -21 -41 -31 -38 -53 4 -38 50 -51 178 -51 123 1
175 14 204 52 l20 27 -27 26 c-15 13 -27 27 -27 30 0 15 119 357 167 478 30
76 55 151 56 165 2 23 -2 26 -33 28 -19 1 -68 -4 -109 -12z"/>
<path d="M1080 1334 c-91 -47 -168 -89 -172 -93 -4 -4 -11 -21 -14 -39 l-6
-32 46 0 c25 0 46 -4 46 -8 0 -4 -20 -68 -45 -142 -59 -174 -67 -216 -50 -257
37 -88 179 -103 322 -33 69 34 113 79 113 116 0 33 -18 38 -64 19 -44 -19 -74
-12 -81 18 -7 26 69 257 87 269 7 4 42 8 78 8 77 0 84 4 105 53 26 63 23 67
-49 67 -97 0 -98 1 -75 67 10 31 19 60 19 65 0 4 -21 8 -47 8 -40 0 -74 -14
-213 -86z"/>
<path d="M5565 1228 c-87 -89 -108 -168 -46 -168 17 0 38 11 57 31 48 51 122
77 139 49 10 -16 -1 -29 -177 -214 -93 -97 -168 -183 -168 -191 0 -29 39 -35
216 -35 102 0 193 -5 214 -11 35 -11 41 -9 83 20 48 33 104 101 114 139 3 12
2 33 -1 47 -10 39 -44 32 -96 -20 -46 -45 -93 -63 -119 -46 -20 13 -10 27 150
205 74 81 142 161 153 177 33 53 19 57 -202 62 -108 2 -210 8 -225 12 -26 7
-34 2 -92 -57z"/>
<path d="M1665 1265 c-91 -20 -173 -54 -190 -78 -21 -29 -19 -54 5 -67 27 -14
25 -34 -10 -129 -43 -117 -60 -146 -106 -179 -49 -36 -60 -66 -34 -92 25 -25
89 -33 229 -28 111 4 121 6 155 32 46 35 49 70 6 94 -37 21 -37 37 -5 137 42
129 55 139 105 85 21 -23 37 -30 64 -30 107 0 221 135 187 218 -30 72 -128 68
-215 -8 -20 -18 -40 -30 -43 -26 -4 4 -6 25 -4 46 l3 40 -44 -1 c-24 -1 -70
-7 -103 -14z"/>
<path d="M2332 1264 c-123 -33 -222 -103 -222 -158 0 -66 69 -57 165 19 50 40
77 55 95 53 23 -3 25 -7 24 -49 0 -75 -20 -95 -101 -102 -191 -18 -318 -110
-318 -229 0 -110 118 -146 269 -80 l58 26 17 -22 c9 -11 29 -26 44 -31 57 -22
177 25 231 90 31 37 33 59 6 66 -28 8 -26 37 15 159 55 165 47 216 -38 255
-51 23 -167 25 -245 3z m3 -334 c11 -18 -33 -99 -60 -112 -34 -15 -59 7 -50
44 14 54 89 101 110 68z"/>
<path d="M3023 1269 c-106 -20 -207 -54 -234 -76 -34 -29 -37 -58 -9 -73 27
-15 25 -43 -11 -157 -28 -90 -36 -102 -86 -150 -95 -90 -62 -122 127 -122 109
0 165 12 201 45 23 20 25 57 4 74 -8 7 -15 22 -15 35 0 12 29 109 65 215 36
107 63 200 61 207 -6 14 -39 15 -103 2z"/>
<path d="M5065 1261 c-151 -43 -253 -139 -203 -189 29 -29 85 -9 169 63 91 77
136 57 102 -46 l-18 -54 -69 -7 c-105 -10 -162 -27 -219 -65 -84 -55 -124
-130 -106 -196 12 -43 33 -62 87 -76 53 -15 101 -7 175 26 l57 27 30 -29 c25
-24 38 -28 79 -27 59 1 121 30 174 80 42 40 47 66 16 82 -25 14 -22 28 28 180
39 116 39 156 1 198 -13 13 -37 31 -55 38 -44 19 -174 16 -248 -5z m15 -335
c0 -24 -28 -81 -48 -100 -53 -47 -85 25 -37 83 28 33 85 45 85 17z"/>
<path d="M6355 1257 c-146 -56 -256 -172 -291 -307 -45 -176 72 -287 276 -259
115 16 260 104 260 157 -1 41 -16 48 -67 28 -82 -31 -115 -38 -148 -32 -44 9
-77 46 -73 82 l3 29 156 5 c139 4 160 7 179 25 77 70 64 203 -27 265 -52 36
-184 39 -268 7z m126 -98 c14 -14 18 -27 14 -42 -11 -35 -36 -48 -85 -45 -36
2 -45 7 -47 23 -3 24 26 61 59 74 33 14 36 13 59 -10z"/>
</g>
</svg>
